<svg id="sword_battle_icon_206195" xmlns="http://www.w3.org/2000/svg" width="20" height="20" viewBox="0 0 20 20">
  <path id="Path_24705" data-name="Path 24705" d="M0,0H20V20H0Z" fill="none"/>
  <path id="Path_24706" data-name="Path 24706" d="M6.284,11.672l2.945,2.947L8.051,15.8l1.179,1.179L8.052,18.154,5.99,16.092,3.632,18.449,2.454,17.271l2.358-2.358L2.749,12.851l1.178-1.178L5.106,12.85l1.178-1.178ZM2.909,3,5.864,3l9.848,9.848,1.179-1.178,1.178,1.178-2.062,2.063,2.357,2.357-1.178,1.178-2.358-2.358-2.063,2.063-1.178-1.178L12.766,15.8,2.911,5.943ZM14.957,3l2.953,0,0,2.936L14.533,9.315,11.587,6.369Z" transform="translate(-0.409 -0.5)" fill="#e03309"/>
</svg>
